HIERARCHY
ROOT root
{
	OFFSET 0.000000 0.000000 0.000000
	CHANNELS 6 Xposition Yposition Zposition Zrotation Yrotation Xrotation
	JOINT lhip
	{
		OFFSET 0.058581 -0.082280 -0.017664
		CHANNELS 3 Zrotation Yrotation Xrotation
		JOINT lknee
		{
			OFFSET 0.043451 -0.386469 0.008037
			CHANNELS 3 Zrotation Yrotation Xrotation
			JOINT lankle
			{
				OFFSET -0.014790 -0.426874 -0.037428
				CHANNELS 3 Zrotation Yrotation Xrotation
				JOINT ltoe
				{
					OFFSET 0.041054 -0.060286 0.122042
					CHANNELS 3 Zrotation Yrotation Xrotation
					End Site
					{
						OFFSET 0.000000 0.000000 0.000000
					}
				}
			}
		}
	}
	JOINT rhip
	{
		OFFSET -0.060310 -0.090513 -0.013543
		CHANNELS 3 Zrotation Yrotation Xrotation
		JOINT rknee
		{
			OFFSET -0.043257 -0.383688 -0.004843
			CHANNELS 3 Zrotation Yrotation Xrotation
			JOINT rankle
			{
				OFFSET 0.019056 -0.420046 -0.034562
				CHANNELS 3 Zrotation Yrotation Xrotation
				JOINT rtoe
				{
					OFFSET -0.034840 -0.062106 0.130323
					CHANNELS 3 Zrotation Yrotation Xrotation
					End Site
					{
						OFFSET 0.000000 0.000000 0.000000
					}
				}
			}
		}
	}
	JOINT lowerback
	{
		OFFSET 0.004439 0.124404 -0.038385
		CHANNELS 3 Zrotation Yrotation Xrotation
		JOINT upperback
		{
			OFFSET 0.004488 0.137956 0.026820
			CHANNELS 3 Zrotation Yrotation Xrotation
			JOINT chest
			{
				OFFSET -0.002265 0.056032 0.002855
				CHANNELS 3 Zrotation Yrotation Xrotation
				JOINT lowerneck
				{
					OFFSET -0.013390 0.211636 -0.033468
					CHANNELS 3 Zrotation Yrotation Xrotation
					JOINT upperneck
					{
						OFFSET 0.010113 0.088937 0.050410
						CHANNELS 3 Zrotation Yrotation Xrotation
						End Site
						{
							OFFSET 0.000000 0.000000 0.000000
						}
					}
				}
				JOINT lclavicle
				{
					OFFSET 0.071702 0.114000 -0.018898
					CHANNELS 3 Zrotation Yrotation Xrotation
					JOINT lshoulder
					{
						OFFSET 0.122921 0.045205 -0.019046
						CHANNELS 3 Zrotation Yrotation Xrotation
						JOINT lelbow
						{
							OFFSET 0.255332 -0.015649 -0.022946
							CHANNELS 3 Zrotation Yrotation Xrotation
							JOINT lwrist
							{
								OFFSET 0.265709 0.012698 -0.007375
								CHANNELS 3 Zrotation Yrotation Xrotation
								End Site
								{
									OFFSET 0.000000 0.000000 0.000000
								}
							}
						}
					}
				}
				JOINT rclavicle
				{
					OFFSET -0.082954 0.112472 -0.023707
					CHANNELS 3 Zrotation Yrotation Xrotation
					JOINT rshoulder
					{
						OFFSET -0.113228 0.046853 -0.008472
						CHANNELS 3 Zrotation Yrotation Xrotation
						JOINT relbow
						{
							OFFSET -0.260127 -0.014369 -0.031269
							CHANNELS 3 Zrotation Yrotation Xrotation
							JOINT rwrist
							{
								OFFSET -0.269108 0.006794 -0.006027
								CHANNELS 3 Zrotation Yrotation Xrotation
								End Site
								{
									OFFSET 0.000000 0.000000 0.000000
								}
							}
						}
					}
				}
			}
		}
	}
}
MOTION
Frames: 5
Frame Time: 0.033333
0.098792 1.032885 0.985868 -89.898855 1.355006 85.312693 -0.715627 -1.270894 15.617682 -10.096933 -13.272730 37.867960 -3.378763 8.573037 -3.410520 0.000000 -0.000000 0.000000 4.607406 7.348402 -11.500804 -0.826465 3.944408 8.017486 -1.002001 -8.080261 -3.055572 0.000000 -0.000000 0.000000 1.286261 -4.485611 7.408489 2.624954 -4.287601 3.321318 0.691349 -1.805152 -1.096944 -6.012105 11.194223 -2.548899 0.675076 7.036085 4.765966 -19.619820 -15.639221 -3.516742 -43.516242 -37.381165 6.188616 14.501695 -15.748223 -24.450616 -1.920726 -8.455311 -17.393231 30.116161 6.766340 4.912501 57.320191 -3.241347 16.604573 -13.551668 5.543358 -8.427667 12.017558 7.702395 -13.531246 
0.064922 1.037649 0.991105 -90.355797 1.392530 84.452639 0.296826 -1.386954 9.571440 -9.038785 -7.914085 44.424635 -2.163287 9.244112 -7.921149 0.000000 -0.000000 0.000000 5.624184 6.950444 -8.216458 -1.086097 4.400733 7.837022 -1.785962 -7.584316 -4.982173 0.000000 -0.000000 0.000000 1.459149 -2.803273 8.073865 2.302223 -3.988046 3.220566 0.292275 -1.399976 -1.458480 -4.838426 9.940526 -1.878888 0.469691 6.345311 6.515856 -21.490022 -15.381978 -2.443834 -47.557848 -34.362953 7.449971 12.535178 -11.925563 -18.704480 -7.198792 -8.750537 -14.536898 29.892999 7.977853 4.105046 57.258600 1.464370 15.900593 -13.728875 9.077324 -7.808362 11.582255 8.538738 -16.944869 
0.033593 1.041736 0.995341 -91.423977 0.666271 83.406594 0.649775 -0.865752 3.669976 -7.993053 -4.469874 47.441181 -0.975152 9.526325 -12.773356 0.000000 -0.000000 0.000000 5.761541 5.803608 -4.587496 -1.269733 6.468683 7.075709 -2.273342 -7.214293 -6.350448 0.000000 -0.000000 0.000000 1.048540 -0.887735 9.772906 1.683237 -3.280707 1.864181 -0.040507 -0.897568 -0.677235 -4.031398 8.582435 -2.810882 0.037567 5.805155 7.999014 -23.514442 -14.668352 -1.812768 -50.354376 -30.505567 8.783748 10.661068 -10.075706 -12.218338 -6.461651 -8.888430 -12.760860 30.080490 9.678876 3.911896 56.394930 6.825880 15.268056 -14.586741 12.799839 -9.235879 10.080521 9.680157 -19.089230 
0.002449 1.046056 0.997673 -92.435952 0.121836 82.310703 1.091817 -2.065499 -2.152812 -7.724822 -1.578536 47.273659 -0.471402 9.486458 -15.485621 0.000000 -0.000000 0.000000 5.745699 4.640582 -0.959896 -1.211328 8.859228 6.585777 -3.176190 -7.390878 -7.718731 0.000000 -0.000000 0.000000 1.040505 1.016901 10.794199 0.977970 -2.900469 2.275407 -0.353098 -0.042421 -0.692342 -3.681502 7.353871 -3.058176 -0.271776 5.665529 7.793336 -24.917234 -13.333654 -0.985258 -53.378967 -25.989691 9.407014 10.513726 -10.680975 -9.149970 -5.912388 -6.520132 -13.000509 29.289604 11.836492 3.712607 55.654459 12.548949 14.270144 -15.990431 15.589829 -12.162708 9.158307 9.425327 -20.202224 
-0.027521 1.049344 0.999526 -93.383263 -0.538190 81.072009 1.186646 -3.148793 -7.585045 -7.856955 -1.316557 44.840846 0.299665 9.307224 -16.740387 0.000000 -0.000000 0.000000 5.284141 2.657616 1.807704 -1.511972 8.573447 7.294946 -2.889254 -4.496562 -10.434495 0.000000 -0.000000 0.000000 1.105681 3.197772 12.296957 0.484110 -2.453659 2.282184 -1.028544 0.596473 -0.347580 -1.721846 7.806713 -3.413974 -1.983378 3.467836 7.700809 -26.411070 -12.554689 -0.293989 -54.859861 -20.573081 10.278594 9.741311 -11.492557 -7.703942 -4.357067 -6.703735 -15.474449 28.416011 13.906227 2.496605 54.251558 18.155380 13.698915 -17.332745 16.908325 -14.889365 6.501514 8.736020 -19.864669 
